<svg width="25" height="14" viewBox="0 0 25 14" fill="none" xmlns="http://www.w3.org/2000/svg">
<path d="M1.35547 13.2285C0.904297 13.2285 0.564453 13.1582 0.335938 13.0176C0.113281 12.8828 0.00195312 12.6748 0.00195312 12.3936C0.00195312 12.1943 0.0605469 12.0303 0.177734 11.9014C0.300781 11.7725 0.479492 11.6934 0.713867 11.6641C0.760742 11.6582 0.810547 11.6523 0.863281 11.6465C0.921875 11.6406 0.983398 11.6377 1.04785 11.6377C1.49316 11.6377 1.81836 11.5293 2.02344 11.3125C2.23438 11.0898 2.39551 10.7061 2.50684 10.1611L3.42969 5.80176H2.5332C2.29883 5.80176 2.11133 5.7373 1.9707 5.6084C1.83594 5.47949 1.76855 5.30078 1.76855 5.07227C1.76855 4.82031 1.85059 4.62402 2.01465 4.4834C2.18457 4.33691 2.40723 4.26367 2.68262 4.26367H3.75488L4.03613 2.89258C4.24121 1.91406 4.58691 1.20508 5.07324 0.765625C5.55957 0.320312 6.25098 0.0976562 7.14746 0.0976562C7.62207 0.0976562 7.97656 0.165039 8.21094 0.299805C8.44531 0.43457 8.5625 0.648438 8.5625 0.941406C8.5625 1.36328 8.3252 1.60059 7.85059 1.65332C7.79199 1.66504 7.73047 1.67383 7.66602 1.67969C7.60156 1.67969 7.53125 1.67969 7.45508 1.67969C6.99805 1.67969 6.66699 1.79395 6.46191 2.02246C6.25684 2.25098 6.09863 2.62891 5.9873 3.15625L5.75879 4.26367H7.16504C7.39355 4.26367 7.5752 4.32812 7.70996 4.45703C7.85059 4.58594 7.9209 4.76465 7.9209 4.99316C7.9209 5.24512 7.83594 5.44434 7.66602 5.59082C7.50195 5.73145 7.28223 5.80176 7.00684 5.80176H5.43359L4.4668 10.4336C4.25 11.4531 3.9043 12.1738 3.42969 12.5957C2.96094 13.0176 2.26953 13.2285 1.35547 13.2285ZM12.2803 13.2373C12.0928 13.2373 11.9199 13.1875 11.7617 13.0879C11.6035 12.9941 11.4424 12.8271 11.2783 12.5869C10.6396 11.7549 10.165 10.8408 9.85449 9.84473C9.54395 8.84863 9.38867 7.78809 9.38867 6.66309C9.38867 5.54395 9.54395 4.48047 9.85449 3.47266C10.1709 2.46484 10.6455 1.55371 11.2783 0.739258C11.4424 0.499023 11.6035 0.332031 11.7617 0.238281C11.9199 0.138672 12.0928 0.0888672 12.2803 0.0888672C12.4561 0.0888672 12.5996 0.138672 12.7109 0.238281C12.8281 0.337891 12.8867 0.469727 12.8867 0.633789C12.8867 0.709961 12.875 0.783203 12.8516 0.853516C12.834 0.917969 12.7959 1.00879 12.7373 1.12598C12.2217 1.97559 11.832 2.87207 11.5684 3.81543C11.3105 4.75293 11.1816 5.70508 11.1816 6.67188C11.1816 7.66797 11.3135 8.62598 11.5771 9.5459C11.8467 10.4658 12.2334 11.3506 12.7373 12.2002C12.7959 12.3232 12.834 12.417 12.8516 12.4814C12.875 12.5459 12.8867 12.6162 12.8867 12.6924C12.8867 12.8682 12.8281 13.0029 12.7109 13.0967C12.5996 13.1904 12.4561 13.2373 12.2803 13.2373ZM14.3984 11.0664C14.1758 11.0664 13.9883 10.9961 13.8359 10.8555C13.6836 10.7148 13.6074 10.542 13.6074 10.3369C13.6074 10.2256 13.6221 10.123 13.6514 10.0293C13.6807 9.92969 13.7334 9.82715 13.8096 9.72168L16.0684 6.63672L13.9238 3.7627C13.8535 3.66895 13.7979 3.57227 13.7568 3.47266C13.7158 3.37305 13.6953 3.25293 13.6953 3.1123C13.6953 2.89551 13.7773 2.70508 13.9414 2.54102C14.1113 2.37695 14.3223 2.29492 14.5742 2.29492C14.7734 2.29492 14.9375 2.33887 15.0664 2.42676C15.1953 2.50879 15.3154 2.63477 15.4268 2.80469L17.2549 5.49414H17.2988L19.1094 2.81348C19.2207 2.64355 19.335 2.51465 19.4521 2.42676C19.5693 2.33887 19.7217 2.29492 19.9092 2.29492C20.1377 2.29492 20.3311 2.36816 20.4893 2.51465C20.6533 2.65527 20.7354 2.84277 20.7354 3.07715C20.7354 3.28809 20.6621 3.49316 20.5156 3.69238L18.292 6.6543L20.5332 9.69531C20.6035 9.78906 20.6533 9.88281 20.6826 9.97656C20.7119 10.0645 20.7266 10.1611 20.7266 10.2666C20.7266 10.4951 20.6475 10.6855 20.4893 10.8379C20.3311 10.9902 20.126 11.0664 19.874 11.0664C19.7275 11.0664 19.5928 11.0342 19.4697 10.9697C19.3525 10.9053 19.2324 10.7852 19.1094 10.6094L17.1582 7.83203H17.123L15.2334 10.5566C15.0928 10.7559 14.9609 10.8906 14.8379 10.9609C14.7148 11.0312 14.5684 11.0664 14.3984 11.0664ZM22.0977 13.2373C21.9219 13.2373 21.7754 13.1875 21.6582 13.0879C21.5469 12.9883 21.4912 12.8564 21.4912 12.6924C21.4912 12.6162 21.5 12.5459 21.5176 12.4814C21.541 12.417 21.582 12.3232 21.6406 12.2002C22.1445 11.3506 22.5283 10.4658 22.792 9.5459C23.0615 8.62598 23.1963 7.66797 23.1963 6.67188C23.1963 5.70508 23.0645 4.75293 22.8008 3.81543C22.543 2.87207 22.1562 1.97559 21.6406 1.12598C21.582 1.00879 21.541 0.917969 21.5176 0.853516C21.5 0.783203 21.4912 0.709961 21.4912 0.633789C21.4912 0.469727 21.5469 0.337891 21.6582 0.238281C21.7754 0.138672 21.9219 0.0888672 22.0977 0.0888672C22.2852 0.0888672 22.458 0.138672 22.6162 0.238281C22.7744 0.332031 22.9355 0.499023 23.0996 0.739258C23.7266 1.55371 24.1982 2.46484 24.5146 3.47266C24.8311 4.48047 24.9893 5.54395 24.9893 6.66309C24.9893 7.78809 24.834 8.84863 24.5234 9.84473C24.2129 10.8408 23.7383 11.7549 23.0996 12.5869C22.9355 12.8271 22.7744 12.9941 22.6162 13.0879C22.458 13.1875 22.2852 13.2373 22.0977 13.2373Z" fill="#FF9255"/>
</svg>
