<svg width="20" height="19" viewBox="0 0 20 19" fill="none" xmlns="http://www.w3.org/2000/svg">
<path d="M9.99121 18.7334C8.74902 18.7334 7.58008 18.4961 6.48438 18.0215C5.38867 17.5527 4.42188 16.8994 3.58398 16.0615C2.75195 15.2295 2.09863 14.2656 1.62402 13.1699C1.14941 12.0684 0.912109 10.8965 0.912109 9.6543C0.912109 8.48828 1.12305 7.38672 1.54492 6.34961C1.9668 5.30664 2.5498 4.37793 3.29395 3.56348C4.04395 2.74316 4.91406 2.07812 5.9043 1.56836C6.89453 1.05273 7.96387 0.736328 9.1123 0.619141V9.80371C9.1123 9.93848 9.12695 10.0527 9.15625 10.1465C9.19141 10.2344 9.25586 10.3193 9.34961 10.4014L15.7393 16.6592C14.9307 17.3213 14.0342 17.8311 13.0498 18.1885C12.0654 18.5518 11.0459 18.7334 9.99121 18.7334ZM19.0791 9.6543C19.0791 10.7793 18.874 11.8604 18.4639 12.8975C18.0537 13.9346 17.4941 14.8516 16.7852 15.6484L11.0898 10.0498L18.2529 5.93652C18.5166 6.4873 18.7188 7.08496 18.8594 7.72949C19.0059 8.36816 19.0791 9.00977 19.0791 9.6543ZM10.5098 8.74902V0.592773C11.4473 0.645508 12.3584 0.847656 13.2432 1.19922C14.1279 1.54492 14.9424 2.01953 15.6865 2.62305C16.4307 3.2207 17.0605 3.91211 17.5762 4.69727L10.5098 8.74902Z" fill="#FF9255"/>
</svg>
